<svg width="20" height="20" viewBox="0 0 20 20" fill="none" xmlns="http://www.w3.org/2000/svg">
<g clip-path="url(#clip0_30_891)">
<path d="M14.3463 15.4042C15.5508 15.4042 16.4666 14.8336 16.8963 13.8193H16.9386V14.8125C16.9386 15.1859 17.171 15.4113 17.5021 15.4113C17.8403 15.4113 18.0727 15.1788 18.0727 14.8055V8.13458C18.0727 7.76828 17.8403 7.52173 17.5021 7.52173C17.171 7.52173 16.9386 7.76828 16.9386 8.13458V9.12782H16.8963C16.4666 8.13458 15.5086 7.53582 14.3463 7.53582C12.4373 7.53582 11.1624 9.12077 11.1624 11.4735C11.1624 13.8334 12.4373 15.4042 14.3463 15.4042ZM14.6281 14.3757C13.2545 14.3757 12.381 13.2557 12.381 11.4735C12.381 9.69136 13.2545 8.55723 14.6281 8.55723C16.0017 8.55723 16.9033 9.72657 16.9033 11.4806C16.9033 13.2487 16.0158 14.3757 14.6281 14.3757Z" fill="black"/>
<path d="M2.2584 15.4043C2.63175 15.4043 2.8149 15.2634 2.94873 14.8689L5.91436 6.57086H5.94958L8.92225 14.8689C9.05605 15.2634 9.2392 15.4043 9.60556 15.4043C9.97885 15.4043 10.2184 15.1789 10.2184 14.8267C10.2184 14.7069 10.1973 14.5943 10.1409 14.4463L6.83715 5.64807C6.67513 5.21837 6.38632 5 5.93549 5C5.49875 5 5.20289 5.21133 5.04792 5.64102L1.74417 14.4534C1.68782 14.6012 1.66669 14.714 1.66669 14.8337C1.66669 15.186 1.8921 15.4043 2.2584 15.4043ZM3.73065 12.3824H8.15442C8.44323 12.3824 8.68274 12.1428 8.68274 11.854C8.68274 11.5582 8.44323 11.3257 8.15442 11.3257H3.73065C3.44183 11.3257 3.20233 11.5582 3.20233 11.854C3.20233 12.1428 3.44183 12.3824 3.73065 12.3824Z" fill="black"/>
</g>
<defs>
<clipPath id="clip0_30_891">
<rect width="16.6667" height="10.4184" fill="white" transform="translate(1.66669 5)"/>
</clipPath>
</defs>
</svg>

