<svg width="27" height="27" viewBox="0 0 27 27" fill="none" xmlns="http://www.w3.org/2000/svg">
<g clip-path="url(#clip0_29_858)">
<path d="M24.9324 6.80274V20.217C24.9324 22.4912 23.7788 23.6227 21.4827 23.6227L11.9465 23.6118C10.6611 23.6118 9.5625 23.2163 8.65063 22.2715L2.1687 15.5808C1.4436 14.8447 1.125 14.1746 1.125 13.4934C1.125 12.8013 1.45459 12.1421 2.1687 11.406L8.63965 4.68237C9.54053 3.72656 10.6501 3.39697 11.9356 3.39697H21.4827C23.7788 3.39697 24.9324 4.52856 24.9324 6.80274ZM18.1318 9.17578L15.0446 12.241L11.9795 9.18677C11.8037 9.02197 11.606 8.9231 11.3533 8.9231C10.8479 8.9231 10.4414 9.3186 10.4414 9.82397C10.4414 10.0657 10.5403 10.2854 10.7051 10.4612L13.7593 13.5154L10.7051 16.5586C10.5403 16.7344 10.4414 16.9541 10.4414 17.1959C10.4414 17.7121 10.8479 18.1187 11.3533 18.1187C11.606 18.1187 11.8367 18.0198 12.0124 17.855L15.0446 14.7898L18.0879 17.855C18.2527 18.0198 18.4834 18.1187 18.7361 18.1187C19.2525 18.1187 19.6479 17.7121 19.6479 17.1959C19.6479 16.9431 19.5711 16.7233 19.3843 16.5476L16.3411 13.5154L19.3952 10.4502C19.593 10.2524 19.6589 10.0547 19.6589 9.802C19.6589 9.30762 19.2634 8.90112 18.758 8.90112C18.5164 8.90112 18.3186 8.98901 18.1318 9.17578Z" fill="#A6A6A6"/>
</g>
<defs>
<clipPath id="clip0_29_858">
<rect width="24.7742" height="20.2477" fill="white" transform="translate(1.125 3.375)"/>
</clipPath>
</defs>
</svg>

