<svg width="120" height="120" viewBox="0 0 24 24" fill="none" xmlns="http://www.w3.org/2000/svg">
    <g clip-path="url(#clip0_categorize_complete)">
        <path d="M13.5894 1.92652L15.0933 3.42066C15.2496 3.56714 15.3863 3.61597 15.5914 3.61597H17.7007C19.4585 3.61597 20.2593 4.43628 20.2593 6.17456V8.2937C20.2593 8.48902 20.3179 8.6355 20.4644 8.78199L21.9585 10.2859C23.189 11.5164 23.1988 12.6589 21.9585 13.8894L20.4644 15.3933C20.3179 15.5496 20.2593 15.6863 20.2593 15.8914V18.0007C20.2593 19.7585 19.4488 20.5593 17.7007 20.5593H15.5914C15.3863 20.5593 15.2496 20.6179 15.0933 20.7644L13.5894 22.2585C12.3589 23.489 11.2164 23.4988 9.9859 22.2585L8.482 20.7644C8.33551 20.6179 8.18903 20.5593 7.99371 20.5593H5.87457C4.12653 20.5593 3.31598 19.7488 3.31598 18.0007V15.8914C3.31598 15.6863 3.26715 15.5496 3.12067 15.3933L1.62653 13.8894C0.396061 12.6589 0.386295 11.5164 1.62653 10.2859L3.12067 8.78199C3.26715 8.6355 3.31598 8.48902 3.31598 8.2937V6.17456C3.31598 4.41675 4.12653 3.61597 5.87457 3.61597H7.99371C8.18903 3.61597 8.33551 3.56714 8.482 3.42066L9.9859 1.92652C11.2164 0.696049 12.3589 0.686283 13.5894 1.92652ZM14.8296 8.21558L10.6597 14.9148L8.67731 12.3562C8.43317 12.0339 8.21832 11.9363 7.94489 11.9363C7.49567 11.9363 7.15387 12.2976 7.15387 12.7468C7.15387 12.9617 7.24176 13.1863 7.38825 13.3816L9.83942 16.3894C10.0933 16.7312 10.3668 16.8582 10.6988 16.8582C11.0308 16.8582 11.314 16.7019 11.5191 16.3894L16.1089 9.15308C16.2261 8.95777 16.3531 8.73316 16.3531 8.50855C16.3531 8.05933 15.9527 7.76636 15.5328 7.76636C15.2691 7.76636 15.0152 7.91285 14.8296 8.21558Z" fill="#DADADA"/>
    </g>
    <defs>
        <clipPath id="clip0_categorize_complete">
            <rect width="22.5464" height="22.1948" fill="white" transform="translate(0.700012 1)"/>
        </clipPath>
    </defs>
</svg>

