<svg width="24" height="24" viewBox="0 0 24 24" fill="none" xmlns="http://www.w3.org/2000/svg">
<g clip-path="url(#clip0_31_898)">
<path d="M20.9785 6.02734V17.9609C20.9785 19.9727 19.9629 20.9785 17.9121 20.9785H6.06641C4.02539 20.9785 3 19.9727 3 17.9609V6.02734C3 4.01562 4.02539 3 6.06641 3H17.9121C19.9629 3 20.9785 4.01562 20.9785 6.02734ZM15.0312 8.10742L10.8613 14.8066L8.87891 12.248C8.63477 11.9258 8.41992 11.8379 8.14648 11.8379C7.69727 11.8379 7.35547 12.1992 7.35547 12.6387C7.35547 12.8633 7.44336 13.0781 7.58984 13.2734L10.041 16.2812C10.2949 16.623 10.5684 16.7598 10.9004 16.7598C11.2324 16.7598 11.5156 16.6035 11.7207 16.2812L16.3105 9.05469C16.4375 8.84961 16.5547 8.625 16.5547 8.41016C16.5547 7.95117 16.1543 7.6582 15.7344 7.6582C15.4707 7.6582 15.2168 7.81445 15.0312 8.10742Z" fill="black"/>
</g>
<defs>
<clipPath id="clip0_31_898">
<rect width="18.3398" height="17.9785" fill="white" transform="translate(3 3)"/>
</clipPath>
</defs>
</svg>

