<svg width="18" height="18" viewBox="0 0 18 18" fill="none" xmlns="http://www.w3.org/2000/svg">
<g clip-path="url(#clip0_29_791)">
<path d="M3.06238 13.5659C3.27478 14.9868 3.8534 15.7485 5.29625 15.7485H12.9867C14.4222 15.7485 15.0009 14.9942 15.2133 13.5659L16.2606 6.59326H2.02235L3.06238 13.5659ZM7.34705 8.38037L9.13783 10.1681L10.9286 8.38037C11.0458 8.27783 11.1703 8.20459 11.3241 8.20459C11.6464 8.20459 11.9174 8.46827 11.9174 8.78321C11.9174 8.94434 11.8368 9.0835 11.7343 9.18604L9.94715 10.9761L11.7343 12.7603C11.8368 12.8701 11.9174 12.9947 11.9174 13.1631C11.9174 13.478 11.6464 13.7563 11.3314 13.7563C11.163 13.7563 11.0311 13.6685 10.9213 13.5733L9.13783 11.7869L7.3544 13.5733C7.24453 13.6685 7.11268 13.7563 6.94423 13.7563C6.6293 13.7563 6.35825 13.478 6.35825 13.1631C6.35825 12.9947 6.43888 12.8701 6.5414 12.7603L8.3285 10.9761L6.5414 9.18604C6.43888 9.0835 6.35825 8.94434 6.35825 8.78321C6.35825 8.46827 6.6293 8.20459 6.95158 8.20459C7.10533 8.20459 7.22983 8.27783 7.34705 8.38037ZM0.425675 3.57569V4.28613C0.425675 5.10644 0.843126 5.59717 1.67075 5.59717H16.6049C17.4325 5.59717 17.85 5.10644 17.85 4.28613V3.57569C17.85 2.75537 17.3886 2.26465 16.6049 2.26465H1.67075C0.843126 2.26465 0.425675 2.75537 0.425675 3.57569Z" fill="#FE473A"/>
</g>
<defs>
<clipPath id="clip0_29_791">
<rect width="17.6954" height="13.4985" fill="white" transform="matrix(-1 0 0 1 17.85 2.25)"/>
</clipPath>
</defs>
</svg>

