<svg width="18" height="18" viewBox="0 0 18 18" fill="none" xmlns="http://www.w3.org/2000/svg">
<g clip-path="url(#clip0_29_764)">
<path d="M4.50533 3.20429L14.8105 13.5095C15.0595 13.7585 15.0668 14.1833 14.8105 14.4323C14.5541 14.6814 14.1293 14.6814 13.8803 14.4323L3.5751 4.12715C3.3261 3.87812 3.31875 3.45332 3.5751 3.20429C3.83145 2.94795 4.24898 2.94062 4.50533 3.20429ZM3.5751 13.5095L13.8803 3.20429C14.1293 2.94795 14.5615 2.94062 14.8105 3.20429C15.0595 3.46064 15.0595 3.87812 14.8105 4.12715L4.50533 14.4323C4.25625 14.6814 3.82417 14.6886 3.5751 14.4323C3.3261 14.1759 3.3261 13.7585 3.5751 13.5095Z" fill="black"/>
</g>
<defs>
<clipPath id="clip0_29_764">
<rect width="11.8854" height="11.6217" fill="white" transform="matrix(-1 0 0 1 15 3)"/>
</clipPath>
</defs>
</svg>

